<svg width="24" height="25" viewBox="0 0 24 25" fill="none" xmlns="http://www.w3.org/2000/svg">
<path d="M8.46492 21.035C6.44276 21.035 4.6197 19.8169 3.84572 17.9488C3.07175 16.0806 3.49925 13.9301 4.92892 12.5L7.05092 10.378L8.46492 11.792L6.34392 13.913C5.58598 14.671 5.28997 15.7757 5.5674 16.811C5.84482 17.8464 6.65354 18.6551 7.6889 18.9325C8.72426 19.21 9.82898 18.914 10.5869 18.156L12.7079 16.035L14.1219 17.45L12.0009 19.571C11.065 20.5116 9.79178 21.0387 8.46492 21.035ZM9.17192 16.742L7.75792 15.328L14.8289 8.25702L16.2429 9.67102L9.17292 16.741L9.17192 16.742ZM16.9509 14.621L15.5359 13.207L17.6569 11.086C18.4252 10.3304 18.7291 9.22069 18.4532 8.179C18.1772 7.13732 17.3637 6.32367 16.3221 6.04746C15.2805 5.77126 14.1708 6.07494 13.4149 6.84302L11.2929 8.96402L9.87892 7.55002L12.0009 5.42802C13.956 3.48999 17.1099 3.49689 19.0565 5.44347C21.0031 7.39005 21.01 10.5439 19.0719 12.499L16.9509 14.62V14.621Z" fill="#DADADA"/>
</svg>
